<?xml version="1.0" encoding="utf-8" standalone="no"?>
<!DOCTYPE svg PUBLIC "-//W3C//DTD SVG 1.1//EN"
  "http://www.w3.org/Graphics/SVG/1.1/DTD/svg11.dtd">
<svg xmlns:xlink="http://www.w3.org/1999/xlink" width="67.68pt" height="57.6pt" viewBox="0 0 67.68 57.6" xmlns="http://www.w3.org/2000/svg" version="1.1">
 <metadata>
  <rdf:RDF xmlns:dc="http://purl.org/dc/elements/1.1/" xmlns:cc="http://creativecommons.org/ns#" xmlns:rdf="http://www.w3.org/1999/02/22-rdf-syntax-ns#">
   <cc:Work>
    <dc:type rdf:resource="http://purl.org/dc/dcmitype/StillImage"/>
    <dc:date>2025-06-30T02:23:41.100668</dc:date>
    <dc:format>image/svg+xml</dc:format>
    <dc:creator>
     <cc:Agent>
      <dc:title>Matplotlib v3.10.3, https://matplotlib.org/</dc:title>
     </cc:Agent>
    </dc:creator>
   </cc:Work>
  </rdf:RDF>
 </metadata>
 <defs>
  <style type="text/css">*{stroke-linejoin: round; stroke-linecap: butt}</style>
 </defs>
 <g id="figure_1">
  <g id="patch_1">
   <path d="M 0 57.6 
L 67.68 57.6 
L 67.68 0 
L 0 0 
z
" style="fill: #ffffff"/>
  </g>
  <g id="axes_1">
   <g id="patch_2">
    <path d="M 8.46 51.264 
L 60.912 51.264 
L 60.912 6.912 
L 8.46 6.912 
z
" style="fill: #ffffff"/>
   </g>
   <g id="matplotlib.axis_1">
    <g id="xtick_1">
     <g id="line2d_1">
      <defs>
       <path id="m3140e474c5" d="M 0 0 
L 0 -1 
" style="stroke: #262626; stroke-width: 0.5"/>
      </defs>
      <g>
       <use xlink:href="#m3140e474c5" x="10.844182" y="51.264" style="fill: #262626; stroke: #262626; stroke-width: 0.5"/>
      </g>
     </g>
     <g id="text_1">
      <!-- 0 -->
      <g style="fill: #262626" transform="translate(9.593322 56.477281) scale(0.045 -0.045)">
       <defs>
        <path id="HelveticaNeue-30" d="M 845 2234 
Q 845 2400 848 2601 
Q 851 2803 880 3004 
Q 909 3206 963 3398 
Q 1018 3590 1123 3734 
Q 1229 3878 1389 3968 
Q 1549 4058 1779 4058 
Q 2010 4058 2170 3968 
Q 2330 3878 2435 3734 
Q 2541 3590 2595 3398 
Q 2650 3206 2678 3004 
Q 2707 2803 2710 2601 
Q 2714 2400 2714 2234 
Q 2714 1978 2698 1661 
Q 2682 1344 2595 1065 
Q 2509 787 2317 595 
Q 2125 403 1779 403 
Q 1434 403 1242 595 
Q 1050 787 963 1065 
Q 877 1344 861 1661 
Q 845 1978 845 2234 
z
M 269 2227 
Q 269 1978 281 1709 
Q 294 1440 345 1184 
Q 397 928 493 701 
Q 589 474 755 301 
Q 922 128 1174 29 
Q 1427 -70 1779 -70 
Q 2138 -70 2387 29 
Q 2637 128 2803 301 
Q 2970 474 3066 701 
Q 3162 928 3213 1184 
Q 3264 1440 3277 1709 
Q 3290 1978 3290 2227 
Q 3290 2477 3277 2745 
Q 3264 3014 3213 3270 
Q 3162 3526 3066 3756 
Q 2970 3987 2803 4160 
Q 2637 4333 2384 4435 
Q 2131 4538 1779 4538 
Q 1427 4538 1174 4435 
Q 922 4333 755 4160 
Q 589 3987 493 3756 
Q 397 3526 345 3270 
Q 294 3014 281 2745 
Q 269 2477 269 2227 
z
" transform="scale(0.015625)"/>
       </defs>
       <use xlink:href="#HelveticaNeue-30"/>
      </g>
     </g>
    </g>
    <g id="xtick_2">
     <g id="line2d_2">
      <g>
       <use xlink:href="#m3140e474c5" x="30.96386" y="51.264" style="fill: #262626; stroke: #262626; stroke-width: 0.5"/>
      </g>
     </g>
     <g id="text_2">
      <!-- 200 -->
      <g style="fill: #262626" transform="translate(27.211281 56.477281) scale(0.045 -0.045)">
       <defs>
        <path id="HelveticaNeue-32" d="M 282 2931 
L 826 2931 
Q 819 3136 867 3337 
Q 915 3539 1024 3699 
Q 1133 3859 1302 3958 
Q 1472 4058 1709 4058 
Q 1888 4058 2048 4000 
Q 2208 3942 2326 3833 
Q 2445 3725 2515 3574 
Q 2586 3424 2586 3238 
Q 2586 3002 2512 2822 
Q 2438 2643 2294 2489 
Q 2150 2336 1932 2185 
Q 1715 2035 1427 1856 
Q 1190 1715 972 1555 
Q 755 1395 582 1184 
Q 410 973 298 688 
Q 186 403 154 0 
L 3117 0 
L 3117 480 
L 787 480 
Q 826 691 950 854 
Q 1075 1018 1251 1158 
Q 1427 1299 1638 1424 
Q 1850 1549 2061 1677 
Q 2272 1811 2470 1958 
Q 2669 2106 2822 2288 
Q 2976 2470 3069 2700 
Q 3162 2931 3162 3232 
Q 3162 3552 3050 3795 
Q 2938 4038 2746 4201 
Q 2554 4365 2294 4451 
Q 2035 4538 1741 4538 
Q 1382 4538 1100 4416 
Q 819 4294 630 4080 
Q 442 3866 352 3571 
Q 262 3277 282 2931 
z
" transform="scale(0.015625)"/>
       </defs>
       <use xlink:href="#HelveticaNeue-32"/>
       <use xlink:href="#HelveticaNeue-30" transform="translate(55.599991 0)"/>
       <use xlink:href="#HelveticaNeue-30" transform="translate(111.199982 0)"/>
      </g>
     </g>
    </g>
    <g id="xtick_3">
     <g id="line2d_3">
      <g>
       <use xlink:href="#m3140e474c5" x="51.083537" y="51.264" style="fill: #262626; stroke: #262626; stroke-width: 0.5"/>
      </g>
     </g>
     <g id="text_3">
      <!-- 400 -->
      <g style="fill: #262626" transform="translate(47.330959 56.477281) scale(0.045 -0.045)">
       <defs>
        <path id="HelveticaNeue-34" d="M 2170 1542 
L 646 1542 
L 2157 3763 
L 2170 3763 
L 2170 1542 
z
M 2682 1542 
L 2682 4538 
L 2246 4538 
L 179 1587 
L 179 1062 
L 2170 1062 
L 2170 0 
L 2682 0 
L 2682 1062 
L 3296 1062 
L 3296 1542 
L 2682 1542 
z
" transform="scale(0.015625)"/>
       </defs>
       <use xlink:href="#HelveticaNeue-34"/>
       <use xlink:href="#HelveticaNeue-30" transform="translate(55.599991 0)"/>
       <use xlink:href="#HelveticaNeue-30" transform="translate(111.199982 0)"/>
      </g>
     </g>
    </g>
   </g>
   <g id="matplotlib.axis_2">
    <g id="ytick_1">
     <g id="line2d_4">
      <defs>
       <path id="m6dce02f216" d="M 0 0 
L 1 0 
" style="stroke: #262626; stroke-width: 0.5"/>
      </defs>
      <g>
       <use xlink:href="#m6dce02f216" x="8.46" y="42.838185" style="fill: #262626; stroke: #262626; stroke-width: 0.5"/>
      </g>
     </g>
     <g id="text_4">
      <!--   10.0 -->
      <g style="fill: #262626" transform="translate(-4.797734 44.444826) scale(0.045 -0.045)">
       <defs>
        <path id="HelveticaNeue-20" transform="scale(0.015625)"/>
        <path id="HelveticaNeue-31" d="M 2278 0 
L 2278 4538 
L 1862 4538 
Q 1818 4282 1696 4115 
Q 1574 3949 1398 3853 
Q 1222 3757 1004 3721 
Q 787 3686 557 3686 
L 557 3251 
L 1734 3251 
L 1734 0 
L 2278 0 
z
" transform="scale(0.015625)"/>
        <path id="HelveticaNeue-2e" d="M 531 710 
L 531 0 
L 1242 0 
L 1242 710 
L 531 710 
z
" transform="scale(0.015625)"/>
       </defs>
       <use xlink:href="#HelveticaNeue-20"/>
       <use xlink:href="#HelveticaNeue-20" transform="translate(27.799988 0)"/>
       <use xlink:href="#HelveticaNeue-31" transform="translate(55.599976 0)"/>
       <use xlink:href="#HelveticaNeue-30" transform="translate(111.199966 0)"/>
       <use xlink:href="#HelveticaNeue-2e" transform="translate(166.799957 0)"/>
       <use xlink:href="#HelveticaNeue-30" transform="translate(194.599945 0)"/>
      </g>
     </g>
    </g>
    <g id="ytick_2">
     <g id="line2d_5">
      <g>
       <use xlink:href="#m6dce02f216" x="8.46" y="31.511923" style="fill: #262626; stroke: #262626; stroke-width: 0.5"/>
      </g>
     </g>
     <g id="text_5">
      <!--   15.0 -->
      <g style="fill: #262626" transform="translate(-4.797734 33.118563) scale(0.045 -0.045)">
       <defs>
        <path id="HelveticaNeue-35" d="M 3008 3981 
L 3008 4461 
L 768 4461 
L 346 2106 
L 813 2080 
Q 973 2272 1181 2390 
Q 1389 2509 1658 2509 
Q 1888 2509 2077 2432 
Q 2266 2355 2400 2217 
Q 2534 2080 2608 1891 
Q 2682 1702 2682 1478 
Q 2682 1210 2605 1008 
Q 2528 806 2397 672 
Q 2266 538 2090 470 
Q 1914 403 1722 403 
Q 1517 403 1347 464 
Q 1178 525 1053 637 
Q 928 749 854 899 
Q 781 1050 768 1222 
L 224 1222 
Q 230 915 345 672 
Q 461 429 659 265 
Q 858 102 1117 16 
Q 1376 -70 1670 -70 
Q 2067 -70 2364 54 
Q 2662 179 2860 390 
Q 3059 602 3158 874 
Q 3258 1146 3258 1434 
Q 3258 1824 3142 2115 
Q 3027 2406 2828 2601 
Q 2630 2797 2361 2893 
Q 2093 2989 1792 2989 
Q 1562 2989 1328 2909 
Q 1094 2829 947 2662 
L 934 2675 
L 1178 3981 
L 3008 3981 
z
" transform="scale(0.015625)"/>
       </defs>
       <use xlink:href="#HelveticaNeue-20"/>
       <use xlink:href="#HelveticaNeue-20" transform="translate(27.799988 0)"/>
       <use xlink:href="#HelveticaNeue-31" transform="translate(55.599976 0)"/>
       <use xlink:href="#HelveticaNeue-35" transform="translate(111.199966 0)"/>
       <use xlink:href="#HelveticaNeue-2e" transform="translate(166.799957 0)"/>
       <use xlink:href="#HelveticaNeue-30" transform="translate(194.599945 0)"/>
      </g>
     </g>
    </g>
    <g id="ytick_3">
     <g id="line2d_6">
      <g>
       <use xlink:href="#m6dce02f216" x="8.46" y="20.18566" style="fill: #262626; stroke: #262626; stroke-width: 0.5"/>
      </g>
     </g>
     <g id="text_6">
      <!--   20.0 -->
      <g style="fill: #262626" transform="translate(-4.797734 21.792301) scale(0.045 -0.045)">
       <use xlink:href="#HelveticaNeue-20"/>
       <use xlink:href="#HelveticaNeue-20" transform="translate(27.799988 0)"/>
       <use xlink:href="#HelveticaNeue-32" transform="translate(55.599976 0)"/>
       <use xlink:href="#HelveticaNeue-30" transform="translate(111.199966 0)"/>
       <use xlink:href="#HelveticaNeue-2e" transform="translate(166.799957 0)"/>
       <use xlink:href="#HelveticaNeue-30" transform="translate(194.599945 0)"/>
      </g>
     </g>
    </g>
    <g id="ytick_4">
     <g id="line2d_7">
      <g>
       <use xlink:href="#m6dce02f216" x="8.46" y="8.859398" style="fill: #262626; stroke: #262626; stroke-width: 0.5"/>
      </g>
     </g>
     <g id="text_7">
      <!--   25.0 -->
      <g style="fill: #262626" transform="translate(-4.797734 10.466038) scale(0.045 -0.045)">
       <use xlink:href="#HelveticaNeue-20"/>
       <use xlink:href="#HelveticaNeue-20" transform="translate(27.799988 0)"/>
       <use xlink:href="#HelveticaNeue-32" transform="translate(55.599976 0)"/>
       <use xlink:href="#HelveticaNeue-35" transform="translate(111.199966 0)"/>
       <use xlink:href="#HelveticaNeue-2e" transform="translate(166.799957 0)"/>
       <use xlink:href="#HelveticaNeue-30" transform="translate(194.599945 0)"/>
      </g>
     </g>
    </g>
   </g>
   <g id="line2d_8">
    <path d="M 10.844182 49.248 
L 11.145977 42.910039 
L 11.447772 42.910039 
L 11.648969 42.081581 
L 11.850166 42.081581 
L 12.051362 40.243342 
L 12.252559 40.243342 
L 12.453756 38.476583 
L 12.654953 38.476583 
L 12.85615 37.706922 
L 13.45974 37.610273 
L 13.862133 37.59232 
L 14.06333 37.075678 
L 14.264527 37.075678 
L 14.465724 34.813993 
L 14.666921 34.813993 
L 14.868117 34.320067 
L 15.069314 34.320067 
L 15.270511 33.963014 
L 15.471708 33.963014 
L 15.672904 33.825123 
L 15.874101 33.825123 
L 16.075298 32.92666 
L 16.276495 32.92666 
L 16.477692 31.550896 
L 17.081282 31.539879 
L 17.282479 31.333977 
L 17.483675 31.333977 
L 17.684872 30.155443 
L 17.886069 30.155443 
L 18.087266 29.221078 
L 18.690856 29.133997 
L 18.892053 27.810286 
L 19.898037 27.794344 
L 20.099234 27.658148 
L 20.30043 27.658148 
L 20.501627 27.534544 
L 21.105217 27.527699 
L 21.306414 26.444671 
L 21.507611 26.444671 
L 21.708808 24.642064 
L 21.910005 24.642064 
L 22.111201 24.53009 
L 22.312398 24.53009 
L 22.513595 21.151908 
L 23.921972 21.097262 
L 24.123169 20.81976 
L 24.726759 20.809924 
L 24.927956 20.541447 
L 25.129153 20.541447 
L 25.33035 20.236267 
L 25.531547 20.236267 
L 25.732743 19.649631 
L 26.336334 19.649631 
L 26.53753 19.007291 
L 26.738727 19.007291 
L 28.650097 18.028877 
L 28.750695 18.028877 
L 28.951892 17.467295 
L 29.153089 17.467295 
L 29.354285 17.076646 
L 29.555482 17.076646 
L 29.756679 16.196607 
L 30.762663 16.089296 
L 30.96386 15.943526 
L 31.969843 15.904903 
L 34.585402 15.54544 
L 35.188992 15.54544 
L 35.390189 15.115027 
L 35.591386 15.115027 
L 35.792582 14.94773 
L 36.396173 14.94773 
L 36.597369 14.728279 
L 38.005747 14.651215 
L 38.307542 14.611199 
L 44.444044 14.569571 
L 44.645241 13.749582 
L 44.846437 13.749582 
L 45.047634 13.278834 
L 46.456012 13.182779 
L 46.657208 13.067565 
L 48.065586 13.067564 
L 48.266783 12.824412 
L 49.272766 12.824412 
L 49.473963 12.679166 
L 50.077554 12.679166 
L 50.27875 12.522482 
L 51.284734 12.522482 
L 51.485931 12.012565 
L 53.296702 11.948398 
L 53.497899 11.791517 
L 54.101489 11.791517 
L 54.302686 10.443414 
L 55.711063 10.430018 
L 55.91226 9.002734 
L 58.527818 8.928 
L 58.527818 8.928 
" clip-path="url(#p15a64c0273)" style="fill: none; stroke: #f21365; stroke-width: 0.5; stroke-linecap: round"/>
   </g>
   <g id="patch_3">
    <path d="M 8.46 51.264 
L 8.46 6.912 
" style="fill: none; stroke: #262626; stroke-width: 0.5; stroke-linejoin: miter; stroke-linecap: square"/>
   </g>
   <g id="patch_4">
    <path d="M 60.912 51.264 
L 60.912 6.912 
" style="fill: none; stroke: #262626; stroke-width: 0.5; stroke-linejoin: miter; stroke-linecap: square"/>
   </g>
   <g id="patch_5">
    <path d="M 8.46 51.264 
L 60.912 51.264 
" style="fill: none; stroke: #262626; stroke-width: 0.5; stroke-linejoin: miter; stroke-linecap: square"/>
   </g>
   <g id="patch_6">
    <path d="M 8.46 6.912 
L 60.912 6.912 
" style="fill: none; stroke: #262626; stroke-width: 0.5; stroke-linejoin: miter; stroke-linecap: square"/>
   </g>
   <g id="legend_1">
    <g id="line2d_9">
     <path d="M 39.510281 44.752359 
L 44.010281 44.752359 
L 48.510281 44.752359 
" style="fill: none; stroke: #f21365; stroke-width: 0.5; stroke-linecap: round"/>
    </g>
    <g id="text_8">
     <!-- hv -->
     <g style="fill: #262626" transform="translate(52.110281 46.327359) scale(0.045 -0.045)">
      <defs>
       <path id="HelveticaNeue-68" d="M 410 4570 
L 410 0 
L 954 0 
L 954 1869 
Q 954 2093 1014 2281 
Q 1075 2470 1196 2611 
Q 1318 2752 1500 2829 
Q 1683 2906 1933 2906 
Q 2246 2906 2425 2726 
Q 2605 2547 2605 2240 
L 2605 0 
L 3149 0 
L 3149 2176 
Q 3149 2445 3094 2665 
Q 3040 2886 2905 3046 
Q 2771 3206 2553 3296 
Q 2336 3386 2010 3386 
Q 1862 3386 1705 3354 
Q 1549 3322 1405 3254 
Q 1261 3187 1145 3081 
Q 1030 2976 966 2822 
L 954 2822 
L 954 4570 
L 410 4570 
z
" transform="scale(0.015625)"/>
       <path id="HelveticaNeue-76" d="M 1901 0 
L 3110 3309 
L 2541 3309 
L 1638 550 
L 1626 550 
L 698 3309 
L 90 3309 
L 1318 0 
L 1901 0 
z
" transform="scale(0.015625)"/>
      </defs>
      <use xlink:href="#HelveticaNeue-68"/>
      <use xlink:href="#HelveticaNeue-76" transform="translate(55.599991 0)"/>
     </g>
    </g>
   </g>
  </g>
 </g>
 <defs>
  <clipPath id="p15a64c0273">
   <rect x="8.46" y="6.912" width="52.452" height="44.352"/>
  </clipPath>
 </defs>
</svg>
